<svg xmlns="http://www.w3.org/2000/svg" viewBox="0 0 512 512" fill="none">
  <path fill="#fff" d="M256 98c18 0 36 16 44 36 8-13 20-21 31-24-9 15-10 30-7 41 20-6 40-5 56 3-17 8-30 19-40 33l58-4c43-3 84 11 112 42-28-5-52 3-73 20-10-12-20-19-33-22-18-5-43 1-62 17-3 2-7 5-10 5-9 0-15-12-16-18-9 14-17 22-33 22-17 0-25-8-34-23-2 7-7 18-15 19-4 1-8-2-12-5-19-16-43-22-61-17-13 3-24 10-34 22-21-17-45-25-73-20 28-31 70-45 113-42l57 4c-9-14-23-25-40-33 16-8 36-9 57-3 2-11 1-26-8-41 12 3 23 11 32 24 8-20 26-36 45-36Zm-80 182c-2 48 23 78 61 87-21 18-37 43-46 72-25-10-43-30-49-57-6 12-14 23-27 29 1-41 16-72 48-102 3-3 8-8 13-13Zm160 0c5 5 10 10 13 13 31 30 47 61 48 102-13-6-22-17-28-29-6 27-24 47-49 57-9-29-24-54-45-72 38-9 63-39 61-87Z"/>
  <path fill="#fff" d="M198 370c10 9 18 17 24 28 9 16 14 32 15 47-10-6-18-15-23-26-8 21-16 33-34 43 3-20 11-37 18-51Z"/>
  <path fill="#fff" d="M314 370c-10 9-18 17-24 28-9 16-14 32-15 47 10-6 18-15 23-26 8 21 16 33 34 43-3-20-11-37-18-51Z"/>
</svg>
