<svg xmlns="http://www.w3.org/2000/svg" viewBox="0 0 512 512" fill="none">
  <path fill="#fff" d="M244 80c14 0 27 5 38 14l16-10c9-5 19-4 27 0l-6 19c21 18 35 44 40 76 4 22 4 44 0 65 20-3 36 3 49 15 18 17 25 39 24 72-18-7-31-20-40-36-9 23-23 41-45 53l9 60c2 12-4 20-17 25-16 6-31 6-45 2l-18-43h-44l-18 43c-14 4-29 4-45-2-13-5-19-13-17-25l9-60c-22-12-37-30-45-53-9 16-22 29-40 36-2-33 6-55 24-72 13-12 29-18 49-15-4-21-4-43 0-65 5-32 19-58 40-76l-6-19c8-4 18-5 27 0l16 10c11-9 24-14 38-14Z"/>
  <path fill="#fff" d="M201 174c18 0 33 8 45 24-7 16-20 24-38 24-17 0-30-8-38-24 12-16 27-24 45-24Z"/>
  <path fill="#fff" d="M311 174c18 0 33 8 45 24-7 16-20 24-38 24-17 0-30-8-38-24 12-16 27-24 45-24Z"/>
  <path fill="#fff" d="M224 275c12 9 23 13 32 13 11 0 21-4 32-13 2 33-9 49-32 49-23 0-34-16-32-49Z"/>
</svg>
