<svg xmlns="http://www.w3.org/2000/svg" viewBox="0 0 280 280" fill="none">
  <g fill="#fff">
    <path d="M186 74c21 1 35 13 43 35l9 24c4 9-2 19-11 21l-7 2 10 78c2 16-10 30-26 30h-11c-9 0-16-6-18-14l-9-39c-10 2-20 2-31 1l-9 38c-2 8-9 14-17 14H98c-16 0-28-14-26-29l8-74-7-2c-9-2-15-12-11-21l9-24c8-22 23-34 43-35l7-17c3-8 10-13 19-13h1c9 0 16 5 19 13l7 17c7 0 13 0 20 1z"/>
    <path d="M140 56l-8-18c-3-7-10-10-16-7 5 5 8 11 9 19-7 0-12 2-17 5 8 4 18 6 32 6z"/>
    <path d="M140 56l8-18c3-7 10-10 16-7-5 5-8 11-9 19 7 0 12 2 17 5-8 4-18 6-32 6z"/>
    <path d="M88 115c-8 3-15 11-18 23 11-6 20-7 27-4-2-7-5-13-9-19z"/>
    <path d="M192 115c8 3 15 11 18 23-11-6-20-7-27-4 2-7 5-13 9-19z"/>
    <path d="M63 144c-17 1-31 10-40 28 14-8 26-9 36-5 2-9 3-17 4-23z"/>
    <path d="M217 144c17 1 31 10 40 28-14-8-26-9-36-5-2-9-3-17-4-23z"/>
    <path d="M104 209c-16 8-28 22-34 40 13-12 25-17 37-15-1-9-2-17-3-25z"/>
    <path d="M176 209c16 8 28 22 34 40-13-12-25-17-37-15 1-9 2-17 3-25z"/>
  </g>
</svg>
