<svg xmlns="http://www.w3.org/2000/svg" viewBox="0 0 340 280" fill="none">
  <g fill="#fff">
    <path d="M166 58c12-23 30-37 57-43-8 9-10 18-7 28 11 3 19 10 24 21-10-3-18-4-24-2 2 8 1 15-4 21-9-9-21-16-36-19-8-2-13-1-10-6z"/>
    <path d="M121 153c-30-32-56-47-93-55 14 12 19 26 17 42-17 4-29 16-37 35 16-7 29-8 40-4-1 13 2 24 10 34 14-16 32-31 55-41 13-6 15-10 8-11z"/>
    <path d="M219 150c31-33 58-48 95-56-15 13-20 27-18 42 17 5 30 17 38 36-16-8-29-9-40-5 2 13-1 24-9 34-15-16-34-31-57-42-13-6-15-10-9-9z"/>
    <path d="M162 89c29 0 50 20 50 48 0 10-3 20-10 31l43 33c23 18 34 42 35 74-10-17-23-25-39-24 2 10 0 19-5 28-7-17-18-31-34-42-7 17-20 30-39 40 5-20 5-40 1-61-1-4-5-5-7-1-7 17-20 31-38 41 5-18 6-37 3-58-1-5-5-6-8-2-13 15-25 34-35 58-5-15-5-29 1-42-16 2-29 10-38 24 0-32 11-56 35-74l42-33c-7-11-11-22-11-33 0-28 22-49 54-49z"/>
    <path d="M118 213c-12 4-23 14-31 28 12-7 23-8 31-3 2-9 2-17 0-25z"/>
    <path d="M221 212c12 4 23 14 31 28-12-7-23-8-31-3-2-9-2-17 0-25z"/>
  </g>
</svg>
