<svg xmlns="http://www.w3.org/2000/svg" viewBox="0 0 512 512" fill="none">
  <path fill="#fff" d="M286 74c27 6 52 23 73 49 23 29 34 64 35 110 17-35 49-58 92-69-18 19-30 41-34 67 18 2 35 11 50 27-35 2-61 14-80 38-12 16-18 32-22 51-18-18-34-30-51-37-33-15-71-10-112 13 26-32 37-59 35-82-3-26-22-49-56-69 31 0 54 7 70 22-6-36-7-72 0-120Z"/>
  <path fill="#fff" d="M246 110c-32 13-58 33-77 62-26 40-38 88-35 142-19-39-51-63-95-73 19 19 31 42 36 68-19 2-35 11-50 27 34 3 61 15 79 38 13 16 19 32 23 51 18-18 34-30 50-37 32-15 69-11 111 12-24-30-35-56-35-79 0-20 9-39 28-56-19-4-32-19-35-41Z"/>
  <path fill="#fff" d="M263 122c18-2 35 3 51 14-13 13-26 18-39 18-17 0-31-8-44-25 11-3 22-6 32-7Z"/>
  <path fill="#fff" d="M246 321c26 2 48 10 67 22 29 19 51 50 67 92-27-1-48-8-66-23-11 24-26 42-48 55 0-32-7-57-21-76-11-15-26-26-47-34 18-17 34-29 48-36Z"/>
</svg>
