<svg xmlns="http://www.w3.org/2000/svg" viewBox="0 0 260 220" fill="none">
  <g fill="#fff">
    <path d="M156 54c12-17 28-27 48-30-7 7-9 14-6 21 8 2 15 7 19 15-8-2-14-2-19-1 2 6 1 12-3 17-8-7-18-12-31-14-7-1-10-2-8-8z"/>
    <path d="M98 90c-20-20-39-30-63-35 10 8 14 18 12 28-11 3-20 11-26 24 11-5 20-6 28-3 0 9 2 16 8 23 10-11 23-21 39-28 9-5 10-7 2-9z"/>
    <path d="M132 72c25 0 43 16 43 39 0 8-3 16-8 24l30 23c16 12 24 30 25 53-7-12-17-18-28-17 1 7 0 14-4 21-5-12-13-22-25-30-5 12-15 21-28 28 3-15 4-29 1-44-1-3-4-4-6-1-5 12-15 22-28 29 4-14 4-28 2-42-1-4-4-4-6-1-10 11-19 25-26 42-4-11-4-21 1-30-12 1-21 7-28 17 0-23 8-41 25-53l29-22c-5-8-8-16-8-25 0-23 18-39 44-39z"/>
    <path d="M176 134c21-22 39-32 63-37-10 8-14 18-12 28 12 3 20 11 27 24-12-5-21-6-29-3 1 8-1 16-7 23-10-11-23-21-39-29-9-4-10-6-3-6z"/>
    <path d="M95 170c-10 4-19 12-25 23 10-5 18-6 25-2 1-7 1-14 0-21z"/>
    <path d="M170 169c10 4 19 12 25 23-10-5-18-6-25-2-1-7-1-14 0-21z"/>
  </g>
</svg>
