<svg xmlns="http://www.w3.org/2000/svg" viewBox="0 0 512 512" fill="none">
  <path fill="#fff" d="M180 101c24 7 44 23 58 47 14-13 27-20 39-22-2 18 1 35 9 50 29-20 61-30 95-27-24 18-39 41-46 69 31 5 56 20 75 46-29 0-53 6-71 18-19 12-34 30-47 55-12-16-23-26-34-32-22-12-48-9-76 9 21-22 31-43 31-62 0-22-13-39-38-51-28 12-41 29-38 51 0 19 10 40 31 62-28-18-53-21-76-9-11 6-22 16-33 32-13-25-29-43-47-55-18-12-42-18-71-18 19-26 44-41 75-46-7-28-23-51-46-69 34-3 65 7 95 27 8-15 11-32 9-50 12 2 25 9 39 22 14-24 34-40 58-47Z"/>
  <path fill="#fff" d="M221 323c18 11 30 25 35 44 4 17 1 35-7 54-13-11-22-24-27-39-9 14-21 24-37 31 2-34 14-64 36-90Z"/>
  <path fill="#fff" d="M291 323c22 26 34 56 36 90-16-7-28-17-37-31-5 15-14 28-27 39-8-19-11-37-7-54 5-19 17-33 35-44Z"/>
</svg>
