<svg xmlns="http://www.w3.org/2000/svg" viewBox="0 0 320 240" fill="none">
  <g fill="#fff">
    <path d="M58 118c-22 2-42 14-52 33 20-10 39-5 52 10 4-22 18-41 39-56-10-8-23-11-39-10z"/>
    <path d="M262 118c22 2 42 14 52 33-20-10-39-5-52 10-4-22-18-41-39-56 10-8 23-11 39-10z"/>
    <path d="M112 53c8 4 15 11 20 20-5-3-11-4-18-3 0-7-1-12-2-17z"/>
    <path d="M208 53c-8 4-15 11-20 20 5-3 11-4 18-3 0-7 1-12 2-17z"/>
    <path d="M160 63c45 0 77 31 77 77 0 43-28 73-67 79l9 8c3 3 3 7 0 10l-4 4c-3 3-7 3-10 0l-5-5-5 5c-3 3-7 3-10 0l-4-4c-3-3-3-7 0-10l9-8c-39-6-67-36-67-79 0-46 32-77 77-77z"/>
    <path d="M146 31c-6 2-14 9-18 18 9-3 18-2 25 2-1-9-3-15-7-20z"/>
    <path d="M174 31c6 2 14 9 18 18-9-3-18-2-25 2 1-9 3-15 7-20z"/>
    <path d="M122 206c-10 6-18 16-21 29 8-8 15-10 23-8 0-8 0-15-2-21z"/>
    <path d="M198 206c10 6 18 16 21 29-8-8-15-10-23-8 0-8 0-15 2-21z"/>
    <path d="M160 203c7 7 12 17 14 28 8 2 16 8 22 18-3-20-11-35-25-46-4-3-7-3-11 0z"/>
  </g>
</svg>
